<mxfile host="app.diagrams.net" agent="Mozilla/5.0 (Windows NT 10.0; Win64; x64) AppleWebKit/537.36 (KHTML, like Gecko) Chrome/128.0.0.0 Safari/537.36" version="24.7.16">
  <diagram id="Ozncqq-PlCKS9a23Px4O" name="Page-1">
    <mxGraphModel dx="1996" dy="1153" grid="0" gridSize="10" guides="1" tooltips="1" connect="1" arrows="1" fold="1" page="0" pageScale="1" pageWidth="827" pageHeight="1169" math="0" shadow="0">
      <root>
        <mxCell id="0" />
        <mxCell id="1" parent="0" />
        <mxCell id="1Th_vpmUwCPSPYS5j-xF-1" value="Property Manager" style="swimlane;whiteSpace=wrap;html=1;" vertex="1" parent="1">
          <mxGeometry x="-147" y="-130" width="370" height="540" as="geometry" />
        </mxCell>
        <mxCell id="1Th_vpmUwCPSPYS5j-xF-2" style="edgeStyle=none;curved=1;rounded=0;orthogonalLoop=1;jettySize=auto;html=1;fontSize=12;startSize=8;endSize=8;entryX=0.5;entryY=0;entryDx=0;entryDy=0;" edge="1" parent="1Th_vpmUwCPSPYS5j-xF-1" source="1Th_vpmUwCPSPYS5j-xF-3" target="1Th_vpmUwCPSPYS5j-xF-14">
          <mxGeometry relative="1" as="geometry">
            <mxPoint x="132" y="113" as="targetPoint" />
          </mxGeometry>
        </mxCell>
        <mxCell id="1Th_vpmUwCPSPYS5j-xF-31" value="Contractor Bid Selection" style="edgeLabel;html=1;align=center;verticalAlign=middle;resizable=0;points=[];fontSize=12;" vertex="1" connectable="0" parent="1Th_vpmUwCPSPYS5j-xF-2">
          <mxGeometry x="-0.1348" y="1" relative="1" as="geometry">
            <mxPoint as="offset" />
          </mxGeometry>
        </mxCell>
        <mxCell id="1Th_vpmUwCPSPYS5j-xF-3" value="View Bids On Detailed Page" style="html=1;align=center;verticalAlign=top;rounded=1;absoluteArcSize=1;arcSize=10;dashed=0;whiteSpace=wrap;" vertex="1" parent="1Th_vpmUwCPSPYS5j-xF-1">
          <mxGeometry x="124" y="51" width="140" height="40" as="geometry" />
        </mxCell>
        <mxCell id="1Th_vpmUwCPSPYS5j-xF-4" style="edgeStyle=none;curved=1;rounded=0;orthogonalLoop=1;jettySize=auto;html=1;entryX=0.5;entryY=0;entryDx=0;entryDy=0;fontSize=12;startSize=8;endSize=8;" edge="1" parent="1Th_vpmUwCPSPYS5j-xF-1">
          <mxGeometry relative="1" as="geometry">
            <mxPoint x="132" y="202" as="targetPoint" />
          </mxGeometry>
        </mxCell>
        <mxCell id="1Th_vpmUwCPSPYS5j-xF-5" style="edgeStyle=none;curved=1;rounded=0;orthogonalLoop=1;jettySize=auto;html=1;entryX=0.5;entryY=0;entryDx=0;entryDy=0;fontSize=12;startSize=8;endSize=8;" edge="1" parent="1Th_vpmUwCPSPYS5j-xF-1">
          <mxGeometry relative="1" as="geometry">
            <Array as="points">
              <mxPoint x="328" y="155" />
            </Array>
            <mxPoint x="148.94736842105272" y="218.94736842105272" as="sourcePoint" />
          </mxGeometry>
        </mxCell>
        <mxCell id="1Th_vpmUwCPSPYS5j-xF-6" value="No" style="edgeLabel;html=1;align=center;verticalAlign=middle;resizable=0;points=[];fontSize=12;" vertex="1" connectable="0" parent="1Th_vpmUwCPSPYS5j-xF-5">
          <mxGeometry x="-0.4746" y="24" relative="1" as="geometry">
            <mxPoint as="offset" />
          </mxGeometry>
        </mxCell>
        <mxCell id="1Th_vpmUwCPSPYS5j-xF-12" style="edgeStyle=none;curved=1;rounded=0;orthogonalLoop=1;jettySize=auto;html=1;entryX=0;entryY=0.5;entryDx=0;entryDy=0;fontSize=12;startSize=8;endSize=8;" edge="1" parent="1Th_vpmUwCPSPYS5j-xF-1" source="1Th_vpmUwCPSPYS5j-xF-14" target="1Th_vpmUwCPSPYS5j-xF-18">
          <mxGeometry relative="1" as="geometry" />
        </mxCell>
        <mxCell id="1Th_vpmUwCPSPYS5j-xF-13" value="No" style="edgeLabel;html=1;align=center;verticalAlign=middle;resizable=0;points=[];fontSize=12;" vertex="1" connectable="0" parent="1Th_vpmUwCPSPYS5j-xF-12">
          <mxGeometry x="-0.0256" y="-3" relative="1" as="geometry">
            <mxPoint as="offset" />
          </mxGeometry>
        </mxCell>
        <mxCell id="1Th_vpmUwCPSPYS5j-xF-32" value="Deny" style="edgeLabel;html=1;align=center;verticalAlign=middle;resizable=0;points=[];fontSize=12;" vertex="1" connectable="0" parent="1Th_vpmUwCPSPYS5j-xF-12">
          <mxGeometry x="-0.0484" y="-2" relative="1" as="geometry">
            <mxPoint as="offset" />
          </mxGeometry>
        </mxCell>
        <mxCell id="1Th_vpmUwCPSPYS5j-xF-39" style="edgeStyle=none;curved=1;rounded=0;orthogonalLoop=1;jettySize=auto;html=1;entryX=0.5;entryY=0;entryDx=0;entryDy=0;fontSize=12;startSize=8;endSize=8;" edge="1" parent="1Th_vpmUwCPSPYS5j-xF-1" source="1Th_vpmUwCPSPYS5j-xF-14" target="1Th_vpmUwCPSPYS5j-xF-38">
          <mxGeometry relative="1" as="geometry" />
        </mxCell>
        <mxCell id="1Th_vpmUwCPSPYS5j-xF-14" value="" style="rhombus;whiteSpace=wrap;html=1;" vertex="1" parent="1Th_vpmUwCPSPYS5j-xF-1">
          <mxGeometry x="67" y="155" width="36" height="36" as="geometry" />
        </mxCell>
        <mxCell id="1Th_vpmUwCPSPYS5j-xF-18" value="UI Updates To Grey Out Bid" style="html=1;align=center;verticalAlign=top;rounded=1;absoluteArcSize=1;arcSize=10;dashed=0;whiteSpace=wrap;" vertex="1" parent="1Th_vpmUwCPSPYS5j-xF-1">
          <mxGeometry x="216" y="153" width="140" height="40" as="geometry" />
        </mxCell>
        <mxCell id="1Th_vpmUwCPSPYS5j-xF-38" value="Contractor Info Section Viewable With Contact Details&amp;nbsp;" style="html=1;align=center;verticalAlign=top;rounded=1;absoluteArcSize=1;arcSize=10;dashed=0;whiteSpace=wrap;" vertex="1" parent="1Th_vpmUwCPSPYS5j-xF-1">
          <mxGeometry x="15" y="253" width="140" height="59" as="geometry" />
        </mxCell>
        <mxCell id="1Th_vpmUwCPSPYS5j-xF-19" style="edgeStyle=none;curved=1;rounded=0;orthogonalLoop=1;jettySize=auto;html=1;entryX=0;entryY=0.5;entryDx=0;entryDy=0;fontSize=12;startSize=8;endSize=8;" edge="1" parent="1" source="1Th_vpmUwCPSPYS5j-xF-20" target="1Th_vpmUwCPSPYS5j-xF-3">
          <mxGeometry relative="1" as="geometry" />
        </mxCell>
        <mxCell id="1Th_vpmUwCPSPYS5j-xF-20" value="" style="ellipse;fillColor=strokeColor;html=1;" vertex="1" parent="1">
          <mxGeometry x="-315" y="-71" width="19" height="19" as="geometry" />
        </mxCell>
        <mxCell id="1Th_vpmUwCPSPYS5j-xF-21" value="Contractor" style="swimlane;whiteSpace=wrap;html=1;" vertex="1" parent="1">
          <mxGeometry x="252" y="-130" width="264" height="540" as="geometry" />
        </mxCell>
        <mxCell id="1Th_vpmUwCPSPYS5j-xF-22" value="Update UI To Show Bid Rejected" style="html=1;align=center;verticalAlign=top;rounded=1;absoluteArcSize=1;arcSize=10;dashed=0;whiteSpace=wrap;" vertex="1" parent="1Th_vpmUwCPSPYS5j-xF-21">
          <mxGeometry x="59" y="153" width="140" height="40" as="geometry" />
        </mxCell>
        <mxCell id="1Th_vpmUwCPSPYS5j-xF-23" style="edgeStyle=none;curved=1;rounded=0;orthogonalLoop=1;jettySize=auto;html=1;entryX=0.5;entryY=0;entryDx=0;entryDy=0;fontSize=12;startSize=8;endSize=8;" edge="1" parent="1Th_vpmUwCPSPYS5j-xF-21">
          <mxGeometry relative="1" as="geometry">
            <mxPoint x="132" y="202" as="targetPoint" />
          </mxGeometry>
        </mxCell>
        <mxCell id="1Th_vpmUwCPSPYS5j-xF-24" style="edgeStyle=none;curved=1;rounded=0;orthogonalLoop=1;jettySize=auto;html=1;entryX=0.5;entryY=0;entryDx=0;entryDy=0;fontSize=12;startSize=8;endSize=8;" edge="1" parent="1Th_vpmUwCPSPYS5j-xF-21">
          <mxGeometry relative="1" as="geometry">
            <Array as="points">
              <mxPoint x="328" y="155" />
            </Array>
            <mxPoint x="148.94736842105272" y="218.94736842105272" as="sourcePoint" />
          </mxGeometry>
        </mxCell>
        <mxCell id="1Th_vpmUwCPSPYS5j-xF-25" value="No" style="edgeLabel;html=1;align=center;verticalAlign=middle;resizable=0;points=[];fontSize=12;" vertex="1" connectable="0" parent="1Th_vpmUwCPSPYS5j-xF-24">
          <mxGeometry x="-0.4746" y="24" relative="1" as="geometry">
            <mxPoint as="offset" />
          </mxGeometry>
        </mxCell>
        <mxCell id="1Th_vpmUwCPSPYS5j-xF-26" style="edgeStyle=none;curved=1;rounded=0;orthogonalLoop=1;jettySize=auto;html=1;entryX=1.001;entryY=0.433;entryDx=0;entryDy=0;fontSize=12;startSize=8;endSize=8;entryPerimeter=0;" edge="1" parent="1Th_vpmUwCPSPYS5j-xF-21">
          <mxGeometry relative="1" as="geometry">
            <Array as="points">
              <mxPoint x="283" y="268" />
            </Array>
            <mxPoint x="202.14000000000033" y="133.32000000000016" as="targetPoint" />
          </mxGeometry>
        </mxCell>
        <mxCell id="1Th_vpmUwCPSPYS5j-xF-27" value="Yes" style="edgeLabel;html=1;align=center;verticalAlign=middle;resizable=0;points=[];fontSize=12;" vertex="1" connectable="0" parent="1Th_vpmUwCPSPYS5j-xF-26">
          <mxGeometry x="-0.368" y="14" relative="1" as="geometry">
            <mxPoint as="offset" />
          </mxGeometry>
        </mxCell>
        <mxCell id="1Th_vpmUwCPSPYS5j-xF-37" value="Update UI To Show Bid Accepted" style="html=1;align=center;verticalAlign=top;rounded=1;absoluteArcSize=1;arcSize=10;dashed=0;whiteSpace=wrap;" vertex="1" parent="1Th_vpmUwCPSPYS5j-xF-21">
          <mxGeometry x="62" y="260" width="144" height="40" as="geometry" />
        </mxCell>
        <mxCell id="1Th_vpmUwCPSPYS5j-xF-33" style="edgeStyle=none;curved=1;rounded=0;orthogonalLoop=1;jettySize=auto;html=1;entryX=0;entryY=0.5;entryDx=0;entryDy=0;fontSize=12;startSize=8;endSize=8;" edge="1" parent="1" source="1Th_vpmUwCPSPYS5j-xF-18" target="1Th_vpmUwCPSPYS5j-xF-22">
          <mxGeometry relative="1" as="geometry" />
        </mxCell>
        <mxCell id="1Th_vpmUwCPSPYS5j-xF-34" value="" style="ellipse;html=1;shape=endState;fillColor=strokeColor;" vertex="1" parent="1">
          <mxGeometry x="703" y="31" width="22" height="22" as="geometry" />
        </mxCell>
        <mxCell id="1Th_vpmUwCPSPYS5j-xF-35" style="edgeStyle=none;curved=1;rounded=0;orthogonalLoop=1;jettySize=auto;html=1;entryX=0;entryY=0.5;entryDx=0;entryDy=0;fontSize=12;startSize=8;endSize=8;" edge="1" parent="1" source="1Th_vpmUwCPSPYS5j-xF-22" target="1Th_vpmUwCPSPYS5j-xF-34">
          <mxGeometry relative="1" as="geometry" />
        </mxCell>
        <mxCell id="1Th_vpmUwCPSPYS5j-xF-36" value="" style="ellipse;html=1;shape=endState;fillColor=strokeColor;" vertex="1" parent="1">
          <mxGeometry x="706" y="138" width="22" height="22" as="geometry" />
        </mxCell>
        <mxCell id="1Th_vpmUwCPSPYS5j-xF-40" style="edgeStyle=none;curved=1;rounded=0;orthogonalLoop=1;jettySize=auto;html=1;entryX=0;entryY=0.5;entryDx=0;entryDy=0;fontSize=12;startSize=8;endSize=8;" edge="1" parent="1" source="1Th_vpmUwCPSPYS5j-xF-38" target="1Th_vpmUwCPSPYS5j-xF-37">
          <mxGeometry relative="1" as="geometry" />
        </mxCell>
        <mxCell id="1Th_vpmUwCPSPYS5j-xF-41" style="edgeStyle=none;curved=1;rounded=0;orthogonalLoop=1;jettySize=auto;html=1;entryX=0;entryY=0.5;entryDx=0;entryDy=0;fontSize=12;startSize=8;endSize=8;" edge="1" parent="1" source="1Th_vpmUwCPSPYS5j-xF-37" target="1Th_vpmUwCPSPYS5j-xF-36">
          <mxGeometry relative="1" as="geometry" />
        </mxCell>
      </root>
    </mxGraphModel>
  </diagram>
</mxfile>
